<?xml version="1.0" encoding="UTF-8" standalone="no" ?>
<!DOCTYPE svg PUBLIC "-//W3C//DTD SVG 1.1//EN" "http://www.w3.org/Graphics/SVG/1.1/DTD/svg11.dtd">
<svg xmlns="http://www.w3.org/2000/svg" xmlns:xlink="http://www.w3.org/1999/xlink" version="1.1" width="72" height="72" viewBox="0 0 1080 1080" xml:space="preserve">
<desc>Created with Fabric.js 5.2.4</desc>
<defs>
</defs>
<rect x="0" y="0" width="100%" height="100%" fill="transparent"></rect>
<g transform="matrix(1 0 0 1 540 540)" id="7ee0b098-6306-48d1-99ac-acdbf47e44ee"  >290
<rect style="stroke: none; stroke-width: 1; stroke-dasharray: none; stroke-linecap: butt; stroke-dashoffset: 0; stroke-linejoin: miter; stroke-miterlimit: 4; fill: rgb(255,255,255); fill-rule: nonzero; opacity: 1; visibility: hidden;" vector-effect="non-scaling-stroke"  x="-540" y="-540" rx="0" ry="0" width="290" height="290" />
</g>
<g transform="matrix(1 0 0 1 540 540)" id="8be0465c-c4e9-4a36-ba3d-7f37ef66d382"  >
</g>
<g transform="matrix(NaN NaN NaN NaN 0 0)"  >
<g style=""   >
</g>
</g>
<g transform="matrix(-0.13 0 0 -0.13 583.51 562)" id="66ad4ff2-224c-4abc-b5c3-1d44312585da"  >
<path style="stroke: rgb(0,0,0); stroke-width: 0.5; stroke-dasharray: none; stroke-linecap: butt; stroke-dashoffset: 0; stroke-linejoin: miter; stroke-miterlimit: 4; fill: rgb(0,255,247); fill-rule: nonzero; opacity: 1;" vector-effect="non-scaling-stroke"  transform=" translate(-3125.74, -3993.2)" d="M 3070 7977 C 3054 7969 3042 7950 3033 7920 C 3026 7895 2955 7340 2875 6685 C 2795 6031 2727 5482 2722 5467 L 2715 5439 L 2420 5632 C 2258 5739 1970 5929 1780 6055 C 1590 6181 1423 6290 1408 6297 C 1386 6306 1374 6306 1341 6293 C 1306 6279 1301 6274 1297 6236 C 1291 6184 1285 6194 1751 5489 C 2123 4925 2145 4891 2138 4884 C 2133 4880 1230 4742 540 4640 C -10 4559 11 4565 3 4473 C -1 4432 2 4421 23 4399 C 39 4383 64 4370 92 4366 C 115 4362 403 4319 730 4270 C 1765 4116 2150 4055 2150 4046 C 2150 4042 1980 3781 1772 3466 C 1250 2679 1298 2758 1308 2702 C 1315 2656 1316 2655 1363 2647 L 1411 2639 L 1558 2733 C 1639 2785 1932 2977 2208 3159 C 2485 3342 2713 3490 2715 3488 C 2718 3485 2741 3236 2905 1380 C 2968 668 3022 65 3026 41 L 3032 -3 L 3118 4 C 3165 7 3206 13 3208 15 C 3211 18 3239 314 3271 672 C 3470 2901 3521 3467 3523 3484 C 3525 3498 3629 3433 4030 3170 C 4308 2987 4601 2795 4682 2743 C 4829 2650 4830 2649 4879 2656 L 4928 2662 L 4934 2711 C 4940 2755 4937 2765 4907 2812 C 4888 2841 4696 3132 4480 3458 C 4264 3785 4092 4055 4096 4059 C 4101 4064 4346 4104 4640 4149 C 5183 4231 6182 4380 6193 4380 C 6197 4380 6211 4392 6225 4407 C 6247 4431 6250 4444 6250 4502 C 6250 4550 6246 4570 6238 4570 C 6201 4570 4109 4887 4103 4894 C 4097 4900 4078 4869 4505 5520 C 4977 6238 4952 6197 4944 6246 C 4939 6280 4933 6287 4899 6302 C 4866 6316 4855 6317 4832 6307 C 4817 6300 4661 6198 4485 6081 C 4002 5757 3528 5449 3523 5454 C 3520 5457 3449 6014 3365 6692 C 3281 7370 3207 7937 3200 7951 C 3183 7989 3118 8001 3070 7977 z M 3265 6291 C 3339 5689 3401 5196 3403 5194 C 3405 5191 4255 5745 4510 5916 C 4653 6012 4648 6009 4629 5980 C 4620 5966 4487 5764 4332 5530 C 3920 4905 3847 4787 3868 4778 C 3884 4771 4873 4619 5485 4530 C 5639 4507 5775 4486 5788 4482 C 5802 4477 5678 4455 5453 4422 C 4916 4343 3846 4178 3841 4174 C 3835 4169 4007 3902 4334 3410 C 4496 3166 4627 2964 4625 2962 C 4624 2960 4402 3104 4134 3281 C 3589 3639 3513 3686 3454 3695 L 3414 3701 L 3397 3648 C 3385 3611 3348 3236 3275 2410 C 3218 1758 3160 1111 3148 973 C 3136 834 3123 720 3120 720 C 3117 720 3097 912 3077 1148 C 2975 2301 2859 3575 2849 3657 C 2838 3743 2836 3749 2819 3739 C 2808 3734 2534 3554 2209 3339 C 1884 3124 1616 2950 1614 2952 C 1613 2954 1742 3154 1903 3395 C 2225 3880 2405 4159 2399 4165 C 2395 4169 1411 4321 785 4414 C 572 4445 435 4470 450 4473 C 464 4477 718 4516 1015 4560 C 1801 4677 2381 4767 2387 4774 C 2394 4781 2247 5010 1886 5555 C 1729 5791 1603 5986 1604 5988 C 1606 5989 1823 5848 2086 5674 C 2350 5500 2626 5318 2700 5269 L 2835 5180 L 2842 5213 C 2846 5230 2908 5729 2981 6320 C 3053 6911 3114 7402 3118 7410 C 3125 7430 3112 7532 3265 6291 z" stroke-linecap="round" />
</g>
</svg>